#!OML:ASF F:\VICON\USERDATA\INSTALL\Justin_Nancy\Justin_Nancy.ASF
:FULLY-SPECIFIED
:DEGREES
196
root -8.89933 17.4129 -4.07357 2.86276 -4.35712 -3.3522
lowerback 4.62283 0.609052 2.45111
upperback -0.728813 1.03595 2.50945
thorax -3.34873 0.492339 1.13451
lowerneck -18.1392 -3.20729 -9.2049
upperneck 21.5475 -2.72592 3.75931
head 10.0558 -1.58233 2.47485
rclavicle 1.02374e-014 4.49253e-014
rhumerus -24.7994 -5.37016 -82.8702
rradius 36.8014
rwrist 3.33366
rhand -13.6112 8.62848
rfingers 7.12502
rthumb 12.504 -20.9774
lclavicle 1.02374e-014 4.49253e-014
lhumerus -33.3136 20.2738 80.1053
lradius 21.6256
lwrist -14.4704
lhand -16.4967 22.1562
lfingers 7.12502
lthumb 9.72094 51.9119
rfemur 3.05253 3.73627 30.5398
rtibia 15.8342
rfoot -15.5098 -4.85709
rtoes 0.889441
lfemur -30.9646 -7.32786 -12.8459
ltibia 20.5173
lfoot -11.8943 12.1752
ltoes -16.4418
197
root -8.89354 17.4028 -3.94512 2.98393 -4.02792 -3.34176
lowerback 4.52216 0.591113 2.50802
upperback -0.752928 1.01057 2.46779
thorax -3.31512 0.478439 1.06243
lowerneck -18.13 -3.23561 -9.12771
upperneck 21.4358 -2.79503 3.79022
head 10.0178 -1.60209 2.46217
rclavicle -6.75868e-015 1.19271e-014
rhumerus -24.6227 -5.58256 -82.8498
rradius 36.9781
rwrist 3.31089
rhand -13.3878 8.10887
rfingers 7.12502
rthumb 12.7194 -21.4837
lclavicle -6.75868e-015 1.19271e-014
lhumerus -33.2296 20.6353 79.9688
lradius 21.0951
lwrist -14.8052
lhand -17.0607 23.5872
lfingers 7.12502
lthumb 9.17674 53.3675
rfemur 3.69038 3.53191 30.5291
rtibia 15.3772
rfoot -15.6551 -5.0851
rtoes 0.741185
lfemur -31.2266 -7.7226 -12.8231
ltibia 19.8558
lfoot -11.8685 11.7332
ltoes -18.3004
198
root -8.88952 17.3938 -3.82376 3.08524 -3.57263 -3.16536
lowerback 4.61407 0.538892 2.36958
upperback -0.846147 0.937841 2.39043
thorax -3.46396 0.442947 1.06445
lowerneck -18.1889 -3.28343 -8.97681
upperneck 21.4445 -2.87253 3.68
head 10.0332 -1.63777 2.38664
rclavicle -7.35503e-015 -2.5842e-014
rhumerus -24.3985 -5.70791 -82.821
rradius 37.0005
rwrist 3.22631
rhand -13.8826 9.11273
rfingers 7.12502
rthumb 12.2423 -20.509
lclavicle -7.35503e-015 -2.5842e-014
lhumerus -33.3711 20.6807 79.9145
lradius 20.8908
lwrist -14.9535
lhand -17.0662 23.766
lfingers 7.12502
lthumb 9.17148 53.5466
rfemur 4.408 3.06979 30.3217
rtibia 14.7179
rfoot -15.6566 -5.13355
rtoes 0.137488
lfemur -31.519 -6.76433 -13.6265
ltibia 19.5016
lfoot -11.3101 9.8885
ltoes -18.5357
199
root -8.89015 17.3832 -3.70795 3.13675 -3.06928 -3.2827
lowerback 4.80074 0.412474 2.38724
upperback -0.906743 0.783154 2.47163
thorax -3.6328 0.365235 1.14894
lowerneck -18.4684 -3.352 -9.00534
upperneck 21.6402 -2.92801 3.65502
head 10.1601 -1.66938 2.37451
rclavicle -1.19768e-014 1.07344e-014
rhumerus -24.4134 -5.48271 -82.8006
rradius 37.3474
rwrist 2.80578
rhand -14.5251 10.6729
rfingers 7.12502
rthumb 11.6227 -18.9848
lclavicle -1.19768e-014 1.07344e-014
lhumerus -33.5552 20.6591 79.9644
lradius 20.8933
lwrist -14.91
lhand -16.9648 23.5747
lfingers 7.12502
lthumb 9.26932 53.351
rfemur 5.15328 2.73493 30.5034
rtibia 14.0137
rfoot -15.4666 -5.30812
rtoes -0.263022
lfemur -31.8179 -5.19454 -14.4021
ltibia 19.3608
lfoot -10.3851 7.7083
ltoes -17.5209
200
root -8.88807 17.3734 -3.59396 3.10473 -2.52763 -3.48142
lowerback 5.00243 0.270562 2.54661
upperback -0.907799 0.616083 2.56764
thorax -3.74698 0.279047 1.17138
lowerneck -18.5895 -3.42718 -9.03108
upperneck 21.6313 -2.99732 3.59391
head 10.1845 -1.7093 2.34581
rclavicle 9.98893e-015 -1.47101e-014
rhumerus -24.4911 -5.47062 -82.7512
rradius 37.7609
rwrist 2.5691
rhand -14.3091 10.4737
rfingers 7.12502
rthumb 11.831 -19.1721
lclavicle 9.98893e-015 -1.47101e-014
lhumerus -33.4869 20.8877 79.9927
lradius 20.7697
lwrist -15.3909
lhand -17.0609 22.7711
lfingers 7.12502
lthumb 9.17662 52.5514
rfemur 6.00986 2.63719 30.8112
rtibia 13.2532
rfoot -15.2954 -5.68971
rtoes -0.417978
lfemur -32.0447 -3.52375 -15.21
ltibia 19.4416
lfoot -9.30835 5.77378
ltoes -16.2663
201
root -8.88394 17.3629 -3.47835 3.01012 -2.04816 -3.64638
lowerback 5.25668 0.180987 2.68485
upperback -0.866586 0.518622 2.64753
thorax -3.84743 0.227922 1.18401
lowerneck -18.5705 -3.52978 -9.08042
upperneck 21.4257 -3.13988 3.65348
head 10.119 -1.76842 2.3527
rclavicle 2.48481e-017 -1.19271e-015
rhumerus -24.3399 -5.62416 -82.6663
rradius 37.8945
rwrist 2.49747
rhand -13.9336 9.62277
rfingers 7.12502
rthumb 12.1931 -20.0019
lclavicle 2.48481e-017 -1.19271e-015
lhumerus -33.1939 21.268 79.9873
lradius 20.3613
lwrist -16.1375
lhand -17.7566 20.3295
lfingers 7.12502
lthumb 8.50521 50.1382
rfemur 6.9731 2.5833 31.0581
rtibia 12.3713
rfoot -15.0728 -5.94896
rtoes -0.0442409
lfemur -32.2482 -2.22369 -15.9164
ltibia 19.7442
lfoot -8.10264 4.51349
ltoes -15.4233
202
root -8.88218 17.3469 -3.35573 2.88891 -1.76404 -3.75596
lowerback 5.58076 0.181024 2.75291
upperback -0.828508 0.538319 2.67838
thorax -3.99079 0.235622 1.17555
lowerneck -18.6544 -3.60262 -9.07994
upperneck 21.2216 -3.24069 3.69732
head 10.0692 -1.8052 2.35113
rclavicle -1.44864e-014 2.38542e-015
rhumerus -24.2007 -5.77536 -82.5599
rradius 37.9268
rwrist 2.4248
rhand -13.6638 9.55921
rfingers 7.12502
rthumb 12.4533 -20.0498
lclavicle -1.44864e-014 2.38542e-015
lhumerus -33.1409 21.3915 79.9998
lradius 20.0153
lwrist -16.0919
lhand -18.3767 19.2653
lfingers 7.12502
lthumb 7.90673 49.0974
rfemur 7.90683 2.69862 31.2526
rtibia 11.4663
rfoot -14.6076 -6.2398
rtoes 0.173155
lfemur -32.3867 -1.50728 -16.3858
ltibia 20.1504
lfoot -7.39231 3.97756
ltoes -13.8898
203
root -8.88146 17.3351 -3.23287 2.73454 -1.58796 -4.00204
lowerback 5.8683 0.181887 2.89261
upperback -0.742296 0.563914 2.77904
thorax -4.0637 0.246062 1.19856
lowerneck -18.822 -3.59055 -9.1269
upperneck 21.1059 -3.21851 3.81067
head 10.0596 -1.78172 2.40022
rclavicle 7.55382e-015 0
rhumerus -24.1466 -5.90382 -82.4621
rradius 37.9115
rwrist 2.36111
rhand -13.7113 9.66095
rfingers 7.12502
rthumb 12.4075 -19.9508
lclavicle 7.55382e-015 0
lhumerus -33.1917 21.6329 79.9673
lradius 19.5021
lwrist -15.2029
lhand -19.0894 19.4446
lfingers 7.12502
lthumb 7.21889 49.3015
rfemur 8.84364 2.88551 31.625
rtibia 10.6903
rfoot -14.1098 -6.56916
rtoes -0.348679
lfemur -32.4037 -1.38386 -16.4188
ltibia 20.5483
lfoot -7.26173 3.82704
ltoes -12.9955
204
root -8.87454 17.3303 -3.1047 2.60402 -1.5707 -4.01459
lowerback 5.94228 0.285368 2.90267
upperback -0.646331 0.701297 2.75298
thorax -4.00524 0.314568 1.15263
lowerneck -18.7145 -3.62907 -9.08418
upperneck 20.927 -3.30184 3.84704
head 9.98117 -1.81039 2.3933
rclavicle 2.41026e-015 1.15295e-014
rhumerus -24.2136 -6.45125 -82.3648
rradius 37.9125
rwrist 2.4876
rhand -13.8595 9.7021
rfingers 7.12502
rthumb 12.2646 -19.9183
lclavicle 2.41026e-015 1.15295e-014
lhumerus -32.9659 21.0365 80.3921
lradius 19.8929
lwrist -15.465
lhand -16.3685 24.8036
lfingers 7.12502
lthumb 9.84461 54.5534
rfemur 9.83261 2.99369 31.6678
rtibia 10.0438
rfoot -13.7999 -6.7029
rtoes -0.727488
lfemur -32.3117 -1.73971 -16.4727
ltibia 20.9264
lfoot -7.33119 3.93094
ltoes -11.8381
205
root -8.86281 17.3246 -2.96497 2.4998 -1.78813 -3.96121
lowerback 5.84126 0.454165 2.8985
upperback -0.480139 0.911715 2.69186
thorax -3.77446 0.421068 1.07268
lowerneck -18.6215 -3.75066 -9.21242
upperneck 20.6201 -3.48049 4.02329
head 9.87315 -1.87857 2.44923
rclavicle -1.01132e-014 2.8625e-014
rhumerus -24.1868 -6.7517 -82.3233
rradius 37.9557
rwrist 2.30824
rhand -14.297 10.0321
rfingers 7.12502
rthumb 11.8427 -19.613
lclavicle -1.01132e-014 2.8625e-014
lhumerus -32.5422 20.8069 80.6327
lradius 19.9054
lwrist -15.7249
lhand -14.9676 26.5409
lfingers 7.12502
lthumb 11.196 56.2222
rfemur 10.6302 3.05665 31.5598
rtibia 9.80503
rfoot -13.8158 -6.67177
rtoes -1.79104
lfemur -32.1092 -2.06825 -16.53
ltibia 21.2263
lfoot -7.24603 3.89135
ltoes -11.1701
